<?xml version="1.0" encoding="UTF-8" standalone="no"?>
<!-- Created with Inkscape (http://www.inkscape.org/) -->
<svg
   xmlns:dc="http://purl.org/dc/elements/1.1/"
   xmlns:cc="http://creativecommons.org/ns#"
   xmlns:rdf="http://www.w3.org/1999/02/22-rdf-syntax-ns#"
   xmlns:svg="http://www.w3.org/2000/svg"
   xmlns="http://www.w3.org/2000/svg"
   xmlns:sodipodi="http://sodipodi.sourceforge.net/DTD/sodipodi-0.dtd"
   xmlns:inkscape="http://www.inkscape.org/namespaces/inkscape"
   width="361.54883"
   height="393.31409"
   id="svg2"
   sodipodi:version="0.32"
   inkscape:version="0.46"
   sodipodi:docname="fig_flow_chart_fmri_preprocess.svg"
   inkscape:output_extension="org.inkscape.output.svg.inkscape"
   version="1.0">
  <sodipodi:namedview
     id="base"
     pagecolor="#ffffff"
     bordercolor="#666666"
     borderopacity="1.0"
     inkscape:pageopacity="0.0"
     inkscape:pageshadow="2"
     inkscape:zoom="0.9899495"
     inkscape:cx="18.118286"
     inkscape:cy="200.67581"
     inkscape:document-units="px"
     inkscape:current-layer="layer1"
     showgrid="false"
     inkscape:window-width="1439"
     inkscape:window-height="844"
     inkscape:window-x="0"
     inkscape:window-y="25"
     showguides="true"
     inkscape:guide-bbox="true">
    <sodipodi:guide
       orientation="1,0"
       position="181.42857,418.57143"
       id="guide4774" />
    <sodipodi:guide
       orientation="0,1"
       position="87.857142,327.85714"
       id="guide2525" />
    <sodipodi:guide
       orientation="1,0"
       position="157.85714,282.85714"
       id="guide2527" />
    <sodipodi:guide
       orientation="1,0"
       position="242.85714,310.71428"
       id="guide2529" />
  </sodipodi:namedview>
  <defs
     id="defs4">
    <marker
       inkscape:stockid="Arrow2Lend"
       orient="auto"
       refY="0"
       refX="0"
       id="Arrow2Lend"
       style="overflow:visible">
      <path
         id="path3353"
         style="font-size:12px;fill-rule:evenodd;stroke-width:0.625;stroke-linejoin:round"
         d="M 8.7185878,4.0337352 L -2.2072895,0.016013256 L 8.7185884,-4.0017078 C 6.97309,-1.6296469 6.9831476,1.6157441 8.7185878,4.0337352 z"
         transform="matrix(-1.1,0,0,-1.1,-1.1,0)" />
    </marker>
    <marker
       inkscape:stockid="Arrow2Lstart"
       orient="auto"
       refY="0"
       refX="0"
       id="Arrow2Lstart"
       style="overflow:visible">
      <path
         id="path3350"
         style="font-size:12px;fill-rule:evenodd;stroke-width:0.625;stroke-linejoin:round"
         d="M 8.7185878,4.0337352 L -2.2072895,0.016013256 L 8.7185884,-4.0017078 C 6.97309,-1.6296469 6.9831476,1.6157441 8.7185878,4.0337352 z"
         transform="matrix(1.1,0,0,1.1,1.1,0)" />
    </marker>
    <inkscape:perspective
       sodipodi:type="inkscape:persp3d"
       inkscape:vp_x="0 : 526.18109 : 1"
       inkscape:vp_y="0 : 1000 : 0"
       inkscape:vp_z="744.09448 : 526.18109 : 1"
       inkscape:persp3d-origin="372.04724 : 350.78739 : 1"
       id="perspective10" />
  </defs>
  <metadata
     id="metadata7">
    <rdf:RDF>
      <cc:Work
         rdf:about="">
        <dc:format>image/svg+xml</dc:format>
        <dc:type
           rdf:resource="http://purl.org/dc/dcmitype/StillImage" />
      </cc:Work>
    </rdf:RDF>
  </metadata>
  <g
     inkscape:label="Calque 1"
     inkscape:groupmode="layer"
     id="layer1"
     transform="translate(-89.244007,-109.36217)">
    <path
       transform="translate(1.5336563e-6,-1.964301)"
       d="M 147.5,131.46933 A 11.607142,11.607142 0 1 1 124.28571,131.46933 A 11.607142,11.607142 0 1 1 147.5,131.46933 z"
       sodipodi:ry="11.607142"
       sodipodi:rx="11.607142"
       sodipodi:cy="131.46933"
       sodipodi:cx="135.89285"
       id="path2416"
       style="fill:#ffffff;fill-opacity:1;fill-rule:nonzero;stroke:#000080;stroke-width:1;stroke-linecap:round;stroke-miterlimit:4;stroke-dasharray:none;stroke-dashoffset:0;stroke-opacity:1"
       sodipodi:type="arc" />
    <g
       style="fill:#000080"
       transform="matrix(0.2577982,0,0,0.2577982,-155.45006,25.224602)"
       id="g2389">
      <g
         style="font-style:normal;font-variant:normal;font-weight:normal;font-stretch:normal;letter-spacing:normal;word-spacing:normal;text-anchor:start;fill:#000080;fill-opacity:1;stroke:#000000;stroke-width:3.87900281;stroke-linecap:butt;stroke-linejoin:miter;stroke-miterlimit:10.43299961;stroke-dasharray:none;stroke-dashoffset:0;stroke-opacity:1"
         id="content"
         transform="matrix(1.0629921,0,0,-1.0629921,-186.02362,789.27165)"
         xml:space="preserve"
         stroke-miterlimit="10.433"
         fill-rule="even-odd"
         font-style="normal"
         font-variant="normal"
         font-weight="normal"
         font-stretch="normal"
         font-size-adjust="none"
         letter-spacing="normal"
         word-spacing="normal"><path
           style="fill:#000080;stroke-width:0"
           d="M 1244.2,379.72 L 1213.7,379.72 L 1212.8,368.52 L 1214,368.52 C 1214.7,376.54 1215.5,378.18 1223,378.18 C 1223.9,378.18 1225.2,378.18 1225.7,378.08 C 1226.7,377.88 1226.7,377.33 1226.7,376.19 L 1226.7,349.93 C 1226.7,348.24 1226.7,347.54 1221.5,347.54 L 1219.5,347.54 L 1219.5,346 C 1221.6,346.15 1226.6,346.15 1228.9,346.15 C 1231.2,346.15 1236.4,346.15 1238.4,346 L 1238.4,347.54 L 1236.4,347.54 C 1231.2,347.54 1231.2,348.24 1231.2,349.93 L 1231.2,376.19 C 1231.2,377.18 1231.2,377.88 1232.1,378.08 C 1232.6,378.18 1234,378.18 1234.9,378.18 C 1242.4,378.18 1243.2,376.54 1243.9,368.52 L 1245.1,368.52 L 1244.2,379.72 z"
           id="path2392" /><path
           style="fill:#000080;stroke-width:0"
           d="M 1258.7,361.18 L 1258.7,361.22 L 1258.7,361.26 L 1258.7,361.3 L 1258.7,361.34 L 1258.7,361.38 L 1258.7,361.42 L 1258.7,361.45 L 1258.7,361.49 L 1258.7,361.52 L 1258.7,361.55 L 1258.7,361.59 L 1258.7,361.62 L 1258.7,361.64 L 1258.7,361.67 L 1258.7,361.7 L 1258.7,361.73 L 1258.6,361.75 L 1258.6,361.77 L 1258.6,361.82 L 1258.6,361.86 L 1258.6,361.9 L 1258.6,361.93 L 1258.6,361.96 L 1258.5,361.99 L 1258.5,362.02 L 1258.5,362.04 L 1258.5,362.06 L 1258.4,362.08 L 1258.4,362.09 L 1258.4,362.1 L 1258.3,362.12 L 1258.3,362.12 L 1258.2,362.13 L 1258.2,362.13 L 1258.2,362.14 L 1258.2,362.14 L 1258.1,362.14 L 1258.1,362.14 L 1258.1,362.14 L 1258,362.15 L 1258,362.15 L 1258,362.15 L 1257.9,362.15 L 1257.9,362.15 L 1257.9,362.15 L 1257.8,362.15 L 1257.8,362.15 L 1257.7,362.15 L 1257.7,362.15 L 1257.6,362.15 C 1255.4,359.96 1252.2,359.92 1250.8,359.92 L 1250.8,358.67 C 1251.6,358.67 1253.9,358.67 1255.9,359.64 L 1255.9,341.86 C 1255.9,340.71 1255.9,340.25 1252.4,340.25 L 1251,340.25 L 1251,339 L 1263.5,339 L 1263.5,340.25 L 1262.2,340.25 C 1258.7,340.25 1258.7,340.71 1258.7,341.86 L 1258.7,361.18 z"
           id="path2394" /></g>    </g>
    <g
       id="g2513"
       transform="translate(4.6542746,0)">
      <path
         sodipodi:type="arc"
         style="fill:#ffffff;fill-opacity:1;fill-rule:nonzero;stroke:#000080;stroke-width:0.57017541;stroke-linecap:round;stroke-miterlimit:4;stroke-dasharray:none;stroke-dashoffset:0;stroke-opacity:1"
         id="path3196"
         sodipodi:cx="135.89285"
         sodipodi:cy="131.46933"
         sodipodi:rx="11.607142"
         sodipodi:ry="11.607142"
         d="M 147.5,131.46933 A 11.607142,11.607142 0 1 1 124.28571,131.46933 A 11.607142,11.607142 0 1 1 147.5,131.46933 z"
         transform="matrix(1.7538462,0,0,1.7538462,-8.6340495,-100.35767)" />
      <text
         xml:space="preserve"
         style="font-size:18px;font-style:normal;font-weight:normal;fill:#000080;fill-opacity:1;stroke:none;stroke-width:1px;stroke-linecap:butt;stroke-linejoin:miter;stroke-opacity:1;font-family:Bitstream Vera Sans"
         x="229.71283"
         y="127.19295"
         id="text2404"><tspan
           sodipodi:role="line"
           id="tspan2406"
           x="231.62299"
           y="127.19295"
           style="font-size:12px;text-align:center;text-anchor:middle;fill:#000080">fMRI </tspan><tspan
           sodipodi:role="line"
           x="229.71283"
           y="142.19295"
           id="tspan2408"
           style="font-size:12px;text-align:center;text-anchor:middle;fill:#000080">run 1</tspan></text>
    </g>
    <g
       id="g2519"
       transform="translate(17.506531,0)">
      <path
         sodipodi:type="arc"
         style="fill:#ffffff;fill-opacity:1;fill-rule:nonzero;stroke:#000080;stroke-width:0.57017541;stroke-linecap:round;stroke-miterlimit:4;stroke-dasharray:none;stroke-dashoffset:0;stroke-opacity:1"
         id="path3198"
         sodipodi:cx="135.89285"
         sodipodi:cy="131.46933"
         sodipodi:rx="11.607142"
         sodipodi:ry="11.607142"
         d="M 147.5,131.46933 A 11.607142,11.607142 0 1 1 124.28571,131.46933 A 11.607142,11.607142 0 1 1 147.5,131.46933 z"
         transform="matrix(1.7538462,0,0,1.7538462,94.650737,-100.35767)" />
      <text
         xml:space="preserve"
         style="font-size:18px;font-style:normal;font-weight:normal;fill:#000080;fill-opacity:1;stroke:none;stroke-width:1px;stroke-linecap:butt;stroke-linejoin:miter;stroke-opacity:1;font-family:Bitstream Vera Sans"
         x="333.02985"
         y="127.19295"
         id="text2410"><tspan
           sodipodi:role="line"
           id="tspan2412"
           x="334.94"
           y="127.19295"
           style="font-size:12px;text-align:center;text-anchor:middle;fill:#000080">fMRI </tspan><tspan
           sodipodi:role="line"
           x="333.02985"
           y="142.19295"
           id="tspan2414"
           style="font-size:12px;text-align:center;text-anchor:middle;fill:#000080">run N</tspan></text>
    </g>
    <g
       id="g3319"
       transform="translate(-0.2373,0)">
      <g
         style="fill:#000080"
         transform="matrix(0.4909411,0,0,0.4909411,-263.33782,-75.323037)"
         id="g3241">
        <g
           style="font-style:normal;font-variant:normal;font-weight:normal;font-stretch:normal;letter-spacing:normal;word-spacing:normal;text-anchor:start;fill:#000080;fill-opacity:1;stroke:#000000;stroke-width:2.0369041;stroke-linecap:butt;stroke-linejoin:miter;stroke-miterlimit:10.43299961;stroke-dasharray:none;stroke-dashoffset:0;stroke-opacity:1"
           id="g3243"
           transform="matrix(1.0629921,0,0,-1.0629921,-186.02362,789.27165)"
           xml:space="preserve"
           stroke-miterlimit="10.433"
           fill-rule="even-odd"
           font-style="normal"
           font-variant="normal"
           font-weight="normal"
           font-stretch="normal"
           font-size-adjust="none"
           letter-spacing="normal"
           word-spacing="normal"><path
             style="fill:#000080;stroke-width:0"
             d="M 1220.6,348.64 L 1220.6,348.78 L 1220.5,348.91 L 1220.5,349.04 L 1220.5,349.17 L 1220.5,349.3 L 1220.4,349.42 L 1220.4,349.54 L 1220.4,349.66 L 1220.3,349.78 L 1220.2,349.89 L 1220.2,350 L 1220.1,350.11 L 1220,350.21 L 1220,350.31 L 1219.9,350.41 L 1219.8,350.5 L 1219.7,350.59 L 1219.6,350.67 L 1219.5,350.75 L 1219.4,350.83 L 1219.3,350.9 L 1219.2,350.96 L 1219.1,351.02 L 1218.9,351.07 L 1218.8,351.12 L 1218.7,351.16 L 1218.6,351.2 L 1218.5,351.23 L 1218.3,351.25 L 1218.2,351.27 L 1218.1,351.28 L 1217.9,351.28 C 1216.5,351.28 1215.3,350.09 1215.3,348.64 C 1215.3,347.2 1216.5,346 1217.9,346 C 1219.4,346 1220.6,347.2 1220.6,348.64 z"
             id="path3245" /><path
             style="fill:#000080;stroke-width:0"
             d="M 1242.6,348.64 L 1242.6,348.78 L 1242.5,348.91 L 1242.5,349.04 L 1242.5,349.17 L 1242.5,349.3 L 1242.4,349.42 L 1242.4,349.54 L 1242.4,349.66 L 1242.3,349.78 L 1242.2,349.89 L 1242.2,350 L 1242.1,350.11 L 1242,350.21 L 1242,350.31 L 1241.9,350.41 L 1241.8,350.5 L 1241.7,350.59 L 1241.6,350.67 L 1241.5,350.75 L 1241.4,350.83 L 1241.3,350.9 L 1241.2,350.96 L 1241.1,351.02 L 1240.9,351.07 L 1240.8,351.12 L 1240.7,351.16 L 1240.6,351.2 L 1240.5,351.23 L 1240.3,351.25 L 1240.2,351.27 L 1240.1,351.28 L 1239.9,351.28 C 1238.5,351.28 1237.3,350.09 1237.3,348.64 C 1237.3,347.2 1238.5,346 1239.9,346 C 1241.4,346 1242.6,347.2 1242.6,348.64 z"
             id="path3247" /><path
             style="fill:#000080;stroke-width:0"
             d="M 1264.6,348.64 L 1264.6,348.78 L 1264.5,348.91 L 1264.5,349.04 L 1264.5,349.17 L 1264.5,349.3 L 1264.4,349.42 L 1264.4,349.54 L 1264.4,349.66 L 1264.3,349.78 L 1264.2,349.89 L 1264.2,350 L 1264.1,350.11 L 1264,350.21 L 1264,350.31 L 1263.9,350.41 L 1263.8,350.5 L 1263.7,350.59 L 1263.6,350.67 L 1263.5,350.75 L 1263.4,350.83 L 1263.3,350.9 L 1263.2,350.96 L 1263.1,351.02 L 1262.9,351.07 L 1262.8,351.12 L 1262.7,351.16 L 1262.6,351.2 L 1262.5,351.23 L 1262.3,351.25 L 1262.2,351.27 L 1262.1,351.28 L 1261.9,351.28 C 1260.5,351.28 1259.3,350.09 1259.3,348.64 C 1259.3,347.2 1260.5,346 1261.9,346 C 1263.4,346 1264.6,347.2 1264.6,348.64 z"
             id="path3249" /></g>      </g>
    </g>
    <g
       id="g4667">
      <rect
         y="175.54977"
         x="91.193604"
         height="41.921329"
         width="89.398499"
         id="rect3288"
         style="fill:#ffffff;fill-opacity:1;fill-rule:nonzero;stroke:#000000;stroke-width:1;stroke-linecap:round;stroke-miterlimit:4;stroke-dasharray:none;stroke-dashoffset:0;stroke-opacity:1" />
      <text
         id="text3276"
         y="188.68176"
         x="118.01004"
         style="font-size:12px;font-style:normal;font-weight:normal;fill:#000000;fill-opacity:1;stroke:none;stroke-width:1px;stroke-linecap:butt;stroke-linejoin:miter;stroke-opacity:1;font-family:Bitstream Vera Sans"
         xml:space="preserve"><tspan
           y="188.68176"
           x="118.01004"
           id="tspan3278"
           sodipodi:role="line">CIVET</tspan><tspan
           id="tspan3280"
           y="203.68176"
           x="118.01004"
           sodipodi:role="line" /></text>
      <text
         id="text3282"
         y="201.81374"
         x="94.074493"
         style="font-size:10px;font-style:normal;font-weight:normal;fill:#000000;fill-opacity:1;stroke:none;stroke-width:1px;stroke-linecap:butt;stroke-linejoin:miter;stroke-opacity:1;font-family:Bitstream Vera Sans"
         xml:space="preserve"><tspan
           style="font-size:8px"
           y="201.81374"
           x="94.074493"
           id="tspan3284"
           sodipodi:role="line">NUC, segmentation,</tspan><tspan
           id="tspan3286"
           style="font-size:8px"
           y="211.81374"
           x="94.074493"
           sodipodi:role="line">spatial normalization</tspan></text>
    </g>
    <path
       style="fill:none;fill-rule:evenodd;stroke:#000000;stroke-width:1px;stroke-linecap:butt;stroke-linejoin:miter;marker-start:url(#Arrow2Lstart);stroke-opacity:1"
       d="M 135.89285,175.04977 L 135.89285,141.61217"
       id="path3327"
       inkscape:connector-type="polyline"
       inkscape:connection-start="#rect3288"
       inkscape:connection-end="#path2416" />
    <g
       id="g4660"
       transform="translate(-7.2694466,62.482047)">
      <rect
         y="173.78201"
         x="264.40747"
         height="34.345184"
         width="65.154839"
         id="rect4624"
         style="fill:#ffffff;fill-opacity:1;fill-rule:nonzero;stroke:#000000;stroke-width:1;stroke-linecap:round;stroke-miterlimit:4;stroke-dasharray:none;stroke-dashoffset:0;stroke-opacity:1" />
      <text
         id="text4626"
         y="186.914"
         x="297.16943"
         style="font-size:12px;font-style:normal;font-weight:normal;fill:#000000;fill-opacity:1;stroke:none;stroke-width:1px;stroke-linecap:butt;stroke-linejoin:miter;stroke-opacity:1;font-family:Bitstream Vera Sans"
         xml:space="preserve"><tspan
           style="text-align:center;text-anchor:middle"
           y="186.914"
           x="297.16943"
           id="tspan4628"
           sodipodi:role="line">Motion</tspan><tspan
           style="text-align:center;text-anchor:middle"
           id="tspan4638"
           y="201.914"
           x="297.16943"
           sodipodi:role="line">correction</tspan><tspan
           id="tspan4630"
           y="216.914"
           x="297.16943"
           sodipodi:role="line" /></text>
    </g>
    <path
       style="fill:none;fill-rule:evenodd;stroke:#000000;stroke-width:1px;stroke-linecap:butt;stroke-linejoin:miter;marker-end:url(#Arrow2Lend);stroke-opacity:1"
       d="M 332.00441,210.33557 L 311.2912,236.09246"
       id="path4656" />
    <path
       style="fill:none;fill-rule:evenodd;stroke:#000000;stroke-width:0.99999994px;stroke-linecap:butt;stroke-linejoin:miter;marker-end:url(#Arrow2Lend);stroke-opacity:1"
       d="M 248.18772,210.33557 L 270.97277,236.02892"
       id="path4658" />
    <text
       xml:space="preserve"
       style="font-size:12px;font-style:normal;font-weight:normal;fill:#000000;fill-opacity:1;stroke:none;stroke-width:1px;stroke-linecap:butt;stroke-linejoin:miter;stroke-opacity:1;font-family:Bitstream Vera Sans"
       x="160.17857"
       y="264.05862"
       id="text4733"><tspan
         sodipodi:role="line"
         id="tspan4735"
         x="160.17857"
         y="264.05862" /></text>
    <g
       id="g4743"
       transform="translate(-1.4039434,-11.897753)">
      <g
         id="g4761"
         transform="translate(-39.395949,19.192898)">
        <rect
           y="229.47531"
           x="130.5439"
           height="34.345184"
           width="92.297691"
           id="rect4698"
           style="fill:#ffffff;fill-opacity:1;fill-rule:nonzero;stroke:#000000;stroke-width:1;stroke-linecap:round;stroke-miterlimit:4;stroke-dasharray:none;stroke-dashoffset:0;stroke-opacity:1" />
        <text
           id="text4700"
           y="242.6073"
           x="176.8773"
           style="font-size:12px;font-style:normal;font-weight:normal;fill:#000000;fill-opacity:1;stroke:none;stroke-width:1px;stroke-linecap:butt;stroke-linejoin:miter;stroke-opacity:1;font-family:Bitstream Vera Sans"
           xml:space="preserve"><tspan
             style="text-align:center;text-anchor:middle"
             id="tspan4704"
             y="242.6073"
             x="176.8773"
             sodipodi:role="line">coregistration</tspan><tspan
             style="text-align:center;text-anchor:middle"
             y="257.6073"
             x="176.8773"
             sodipodi:role="line"
             id="tspan4710" /><tspan
             id="tspan4706"
             y="272.6073"
             x="176.8773"
             sodipodi:role="line" /></text>
        <g
           style="fill:#000000"
           transform="matrix(0.2577982,0,0,0.2577982,-150.71791,153.03712)"
           id="g4712">
          <g
             style="font-style:normal;font-variant:normal;font-weight:normal;font-stretch:normal;letter-spacing:normal;word-spacing:normal;text-anchor:start;fill:#000000;fill-opacity:1;stroke:#000000;stroke-width:3.87900281;stroke-linecap:butt;stroke-linejoin:miter;stroke-miterlimit:10.43299961;stroke-dasharray:none;stroke-dashoffset:0;stroke-opacity:1"
             id="g4714"
             transform="matrix(1.0629921,0,0,-1.0629921,-186.02362,789.27165)"
             xml:space="preserve"
             stroke-miterlimit="10.433"
             fill-rule="even-odd"
             font-style="normal"
             font-variant="normal"
             font-weight="normal"
             font-stretch="normal"
             font-size-adjust="none"
             letter-spacing="normal"
             word-spacing="normal"><path
               style="fill:#000000;stroke-width:0"
               d="M 1244.2,379.72 L 1213.7,379.72 L 1212.8,368.52 L 1214,368.52 C 1214.7,376.54 1215.5,378.18 1223,378.18 C 1223.9,378.18 1225.2,378.18 1225.7,378.08 C 1226.7,377.88 1226.7,377.33 1226.7,376.19 L 1226.7,349.93 C 1226.7,348.24 1226.7,347.54 1221.5,347.54 L 1219.5,347.54 L 1219.5,346 C 1221.6,346.15 1226.6,346.15 1228.9,346.15 C 1231.2,346.15 1236.4,346.15 1238.4,346 L 1238.4,347.54 L 1236.4,347.54 C 1231.2,347.54 1231.2,348.24 1231.2,349.93 L 1231.2,376.19 C 1231.2,377.18 1231.2,377.88 1232.1,378.08 C 1232.6,378.18 1234,378.18 1234.9,378.18 C 1242.4,378.18 1243.2,376.54 1243.9,368.52 L 1245.1,368.52 L 1244.2,379.72 z"
               id="path4716" /><path
               style="fill:#000000;stroke-width:0"
               d="M 1258.7,361.18 L 1258.7,361.22 L 1258.7,361.26 L 1258.7,361.3 L 1258.7,361.34 L 1258.7,361.38 L 1258.7,361.42 L 1258.7,361.45 L 1258.7,361.49 L 1258.7,361.52 L 1258.7,361.55 L 1258.7,361.59 L 1258.7,361.62 L 1258.7,361.64 L 1258.7,361.67 L 1258.7,361.7 L 1258.7,361.73 L 1258.6,361.75 L 1258.6,361.77 L 1258.6,361.82 L 1258.6,361.86 L 1258.6,361.9 L 1258.6,361.93 L 1258.6,361.96 L 1258.5,361.99 L 1258.5,362.02 L 1258.5,362.04 L 1258.5,362.06 L 1258.4,362.08 L 1258.4,362.09 L 1258.4,362.1 L 1258.3,362.12 L 1258.3,362.12 L 1258.2,362.13 L 1258.2,362.13 L 1258.2,362.14 L 1258.2,362.14 L 1258.1,362.14 L 1258.1,362.14 L 1258.1,362.14 L 1258,362.15 L 1258,362.15 L 1258,362.15 L 1257.9,362.15 L 1257.9,362.15 L 1257.9,362.15 L 1257.8,362.15 L 1257.8,362.15 L 1257.7,362.15 L 1257.7,362.15 L 1257.6,362.15 C 1255.4,359.96 1252.2,359.92 1250.8,359.92 L 1250.8,358.67 C 1251.6,358.67 1253.9,358.67 1255.9,359.64 L 1255.9,341.86 C 1255.9,340.71 1255.9,340.25 1252.4,340.25 L 1251,340.25 L 1251,339 L 1263.5,339 L 1263.5,340.25 L 1262.2,340.25 C 1258.7,340.25 1258.7,340.71 1258.7,341.86 L 1258.7,361.18 z"
               id="path4718" /></g>        </g>
        <text
           xml:space="preserve"
           style="font-size:12px;font-style:normal;font-weight:normal;fill:#000000;fill-opacity:1;stroke:none;stroke-width:1px;stroke-linecap:butt;stroke-linejoin:miter;stroke-opacity:1;font-family:Bitstream Vera Sans"
           x="148.39285"
           y="261.69254"
           id="text4737"><tspan
             sodipodi:role="line"
             id="tspan4739"
             x="148.39285"
             y="261.69254">- mean fMRI</tspan></text>
      </g>
    </g>
    <path
       style="fill:none;fill-rule:evenodd;stroke:#000000;stroke-width:1px;stroke-linecap:butt;stroke-linejoin:miter;marker-end:url(#Arrow2Lend);stroke-opacity:1"
       d="M 135.87524,217.36219 L 135.87524,235.14063"
       id="path5820" />
    <rect
       style="fill:#ffffff;fill-opacity:1;fill-rule:nonzero;stroke:#000000;stroke-width:1;stroke-linecap:round;stroke-miterlimit:4;stroke-dasharray:none;stroke-dashoffset:0;stroke-opacity:1"
       id="rect6345"
       width="65.154839"
       height="34.345184"
       x="201.77797"
       y="356.05615" />
    <text
       xml:space="preserve"
       style="font-size:12px;font-style:normal;font-weight:normal;fill:#000000;fill-opacity:1;stroke:none;stroke-width:1px;stroke-linecap:butt;stroke-linejoin:miter;stroke-opacity:1;font-family:Bitstream Vera Sans"
       x="234.53993"
       y="369.18814"
       id="text6347"><tspan
         sodipodi:role="line"
         id="tspan6349"
         x="234.53993"
         y="369.18814"
         style="text-align:center;text-anchor:middle">CORSICA</tspan><tspan
         sodipodi:role="line"
         x="234.53993"
         y="384.18814"
         id="tspan6351"
         style="text-align:center;text-anchor:middle">run 1</tspan><tspan
         sodipodi:role="line"
         x="234.53993"
         y="399.18814"
         id="tspan6353" /></text>
    <rect
       style="fill:#ffffff;fill-opacity:1;fill-rule:nonzero;stroke:#000000;stroke-width:1;stroke-linecap:round;stroke-miterlimit:4;stroke-dasharray:none;stroke-dashoffset:0;stroke-opacity:1"
       id="rect6367"
       width="65.154839"
       height="34.345184"
       x="317.44043"
       y="356.05615" />
    <text
       xml:space="preserve"
       style="font-size:12px;font-style:normal;font-weight:normal;fill:#000000;fill-opacity:1;stroke:none;stroke-width:1px;stroke-linecap:butt;stroke-linejoin:miter;stroke-opacity:1;font-family:Bitstream Vera Sans"
       x="350.20239"
       y="369.18814"
       id="text6369"><tspan
         sodipodi:role="line"
         id="tspan6371"
         x="350.20239"
         y="369.18814"
         style="text-align:center;text-anchor:middle">CORSICA</tspan><tspan
         sodipodi:role="line"
         x="350.20239"
         y="384.18814"
         id="tspan6373"
         style="text-align:center;text-anchor:middle">run 1</tspan><tspan
         sodipodi:role="line"
         x="350.20239"
         y="399.18814"
         id="tspan6375" /></text>
    <g
       id="g3326">
      <g
         style="fill:#000000"
         transform="matrix(0.4909411,0,0,0.4909411,-263.57512,167.68641)"
         id="g6377">
        <g
           style="font-style:normal;font-variant:normal;font-weight:normal;font-stretch:normal;letter-spacing:normal;word-spacing:normal;text-anchor:start;fill:#000000;fill-opacity:1;stroke:#000000;stroke-width:2.0369041;stroke-linecap:butt;stroke-linejoin:miter;stroke-miterlimit:10.43299961;stroke-dasharray:none;stroke-dashoffset:0;stroke-opacity:1"
           id="g6379"
           transform="matrix(1.0629921,0,0,-1.0629921,-186.02362,789.27165)"
           xml:space="preserve"
           stroke-miterlimit="10.433"
           fill-rule="even-odd"
           font-style="normal"
           font-variant="normal"
           font-weight="normal"
           font-stretch="normal"
           font-size-adjust="none"
           letter-spacing="normal"
           word-spacing="normal"><path
             style="fill:#000000;stroke-width:0"
             d="M 1220.6,348.64 L 1220.6,348.78 L 1220.5,348.91 L 1220.5,349.04 L 1220.5,349.17 L 1220.5,349.3 L 1220.4,349.42 L 1220.4,349.54 L 1220.4,349.66 L 1220.3,349.78 L 1220.2,349.89 L 1220.2,350 L 1220.1,350.11 L 1220,350.21 L 1220,350.31 L 1219.9,350.41 L 1219.8,350.5 L 1219.7,350.59 L 1219.6,350.67 L 1219.5,350.75 L 1219.4,350.83 L 1219.3,350.9 L 1219.2,350.96 L 1219.1,351.02 L 1218.9,351.07 L 1218.8,351.12 L 1218.7,351.16 L 1218.6,351.2 L 1218.5,351.23 L 1218.3,351.25 L 1218.2,351.27 L 1218.1,351.28 L 1217.9,351.28 C 1216.5,351.28 1215.3,350.09 1215.3,348.64 C 1215.3,347.2 1216.5,346 1217.9,346 C 1219.4,346 1220.6,347.2 1220.6,348.64 z"
             id="path6381" /><path
             style="fill:#000000;stroke-width:0"
             d="M 1242.6,348.64 L 1242.6,348.78 L 1242.5,348.91 L 1242.5,349.04 L 1242.5,349.17 L 1242.5,349.3 L 1242.4,349.42 L 1242.4,349.54 L 1242.4,349.66 L 1242.3,349.78 L 1242.2,349.89 L 1242.2,350 L 1242.1,350.11 L 1242,350.21 L 1242,350.31 L 1241.9,350.41 L 1241.8,350.5 L 1241.7,350.59 L 1241.6,350.67 L 1241.5,350.75 L 1241.4,350.83 L 1241.3,350.9 L 1241.2,350.96 L 1241.1,351.02 L 1240.9,351.07 L 1240.8,351.12 L 1240.7,351.16 L 1240.6,351.2 L 1240.5,351.23 L 1240.3,351.25 L 1240.2,351.27 L 1240.1,351.28 L 1239.9,351.28 C 1238.5,351.28 1237.3,350.09 1237.3,348.64 C 1237.3,347.2 1238.5,346 1239.9,346 C 1241.4,346 1242.6,347.2 1242.6,348.64 z"
             id="path6383" /><path
             style="fill:#000000;stroke-width:0"
             d="M 1264.6,348.64 L 1264.6,348.78 L 1264.5,348.91 L 1264.5,349.04 L 1264.5,349.17 L 1264.5,349.3 L 1264.4,349.42 L 1264.4,349.54 L 1264.4,349.66 L 1264.3,349.78 L 1264.2,349.89 L 1264.2,350 L 1264.1,350.11 L 1264,350.21 L 1264,350.31 L 1263.9,350.41 L 1263.8,350.5 L 1263.7,350.59 L 1263.6,350.67 L 1263.5,350.75 L 1263.4,350.83 L 1263.3,350.9 L 1263.2,350.96 L 1263.1,351.02 L 1262.9,351.07 L 1262.8,351.12 L 1262.7,351.16 L 1262.6,351.2 L 1262.5,351.23 L 1262.3,351.25 L 1262.2,351.27 L 1262.1,351.28 L 1261.9,351.28 C 1260.5,351.28 1259.3,350.09 1259.3,348.64 C 1259.3,347.2 1260.5,346 1261.9,346 C 1263.4,346 1264.6,347.2 1264.6,348.64 z"
             id="path6385" /></g>      </g>
    </g>
    <path
       style="fill:none;fill-rule:evenodd;stroke:#000000;stroke-width:0.99999994px;stroke-linecap:butt;stroke-linejoin:miter;marker-end:url(#Arrow2Lend);stroke-opacity:1"
       d="M 267.52175,270.80789 L 246.86236,298.95011"
       id="path6387" />
    <path
       style="fill:none;fill-rule:evenodd;stroke:#000000;stroke-width:1px;stroke-linecap:butt;stroke-linejoin:miter;marker-end:url(#Arrow2Lend);stroke-opacity:1"
       d="M 313.62228,270.8395 L 332.16498,298.80398"
       id="path6389" />
    <rect
       style="fill:#ffffff;fill-opacity:1;fill-rule:nonzero;stroke:#000000;stroke-width:1;stroke-linecap:round;stroke-miterlimit:4;stroke-dasharray:none;stroke-dashoffset:0;stroke-opacity:1"
       id="rect6413"
       width="69.440552"
       height="34.345184"
       x="199.63512"
       y="411.61816" />
    <text
       xml:space="preserve"
       style="font-size:12px;font-style:normal;font-weight:normal;fill:#000000;fill-opacity:1;stroke:none;stroke-width:1px;stroke-linecap:butt;stroke-linejoin:miter;stroke-opacity:1;font-family:Bitstream Vera Sans"
       x="234.53993"
       y="424.75015"
       id="text6415"><tspan
         sodipodi:role="line"
         id="tspan6417"
         x="234.53993"
         y="424.75015"
         style="text-align:center;text-anchor:middle">resampling</tspan><tspan
         sodipodi:role="line"
         x="234.53993"
         y="439.75015"
         id="tspan6419"
         style="text-align:center;text-anchor:middle">run 1</tspan><tspan
         sodipodi:role="line"
         x="234.53993"
         y="454.75015"
         id="tspan6421" /></text>
    <rect
       style="fill:#ffffff;fill-opacity:1;fill-rule:nonzero;stroke:#000000;stroke-width:1;stroke-linecap:round;stroke-miterlimit:4;stroke-dasharray:none;stroke-dashoffset:0;stroke-opacity:1"
       id="rect6432"
       width="69.440552"
       height="34.345184"
       x="315.29758"
       y="411.61816" />
    <text
       xml:space="preserve"
       style="font-size:12px;font-style:normal;font-weight:normal;fill:#000000;fill-opacity:1;stroke:none;stroke-width:1px;stroke-linecap:butt;stroke-linejoin:miter;stroke-opacity:1;font-family:Bitstream Vera Sans"
       x="350.20239"
       y="424.75015"
       id="text6434"><tspan
         sodipodi:role="line"
         id="tspan6436"
         x="350.20239"
         y="424.75015"
         style="text-align:center;text-anchor:middle">resampling</tspan><tspan
         sodipodi:role="line"
         x="350.20239"
         y="439.75015"
         id="tspan6438"
         style="text-align:center;text-anchor:middle">run N</tspan><tspan
         sodipodi:role="line"
         x="350.20239"
         y="454.75015"
         id="tspan6440" /></text>
    <path
       style="fill:none;fill-rule:evenodd;stroke:#000000;stroke-width:1px;stroke-linecap:butt;stroke-linejoin:miter;marker-end:url(#Arrow2Lend);stroke-opacity:1"
       d="M 234.33777,390.69816 L 234.33777,410.72842"
       id="path6458" />
    <path
       style="fill:none;fill-rule:evenodd;stroke:#000000;stroke-width:1px;stroke-linecap:butt;stroke-linejoin:miter;marker-end:url(#Arrow2Lend);stroke-opacity:1"
       d="M 350.00023,390.25174 L 350.00023,410.54183"
       id="path6460" />
    <text
       xml:space="preserve"
       style="font-size:12px;font-style:normal;font-weight:normal;fill:#000080;fill-opacity:1;stroke:none;stroke-width:1px;stroke-linecap:butt;stroke-linejoin:miter;stroke-opacity:1;font-family:Bitstream Vera Sans"
       x="422.79089"
       y="112.19295"
       id="text6484"><tspan
         sodipodi:role="line"
         id="tspan6486"
         x="422.79089"
         y="112.19295" /><tspan
         sodipodi:role="line"
         x="422.79089"
         y="127.19295"
         id="tspan3315"
         style="text-align:center;text-anchor:middle">individual</tspan><tspan
         sodipodi:role="line"
         x="422.79089"
         y="142.19295"
         id="tspan3317"
         style="text-align:center;text-anchor:middle">datasets</tspan></text>
    <g
       id="g6552"
       transform="translate(1.5140266,-69.285714)">
      <rect
         y="245.00507"
         x="193.83537"
         height="34.345184"
         width="78.011978"
         id="rect6532"
         style="fill:#ffffff;fill-opacity:1;fill-rule:nonzero;stroke:#000000;stroke-width:1;stroke-linecap:round;stroke-miterlimit:4;stroke-dasharray:none;stroke-dashoffset:0;stroke-opacity:1" />
      <text
         id="text6534"
         y="258.13705"
         x="233.02588"
         style="font-size:12px;font-style:normal;font-weight:normal;fill:#000000;fill-opacity:1;stroke:none;stroke-width:1px;stroke-linecap:butt;stroke-linejoin:miter;stroke-opacity:1;font-family:Bitstream Vera Sans"
         xml:space="preserve"><tspan
           style="text-align:center;text-anchor:middle"
           y="258.13705"
           x="233.02588"
           id="tspan6536"
           sodipodi:role="line">slice timing</tspan><tspan
           style="text-align:center;text-anchor:middle"
           id="tspan6538"
           y="273.13705"
           x="233.02588"
           sodipodi:role="line">run 1</tspan><tspan
           id="tspan6540"
           y="288.13705"
           x="233.02588"
           sodipodi:role="line" /></text>
    </g>
    <g
       id="g6559"
       transform="translate(1.9886284,-69.285714)">
      <rect
         y="245.00507"
         x="310.2121"
         height="34.345184"
         width="76.583412"
         id="rect6542"
         style="fill:#ffffff;fill-opacity:1;fill-rule:nonzero;stroke:#000000;stroke-width:1;stroke-linecap:round;stroke-miterlimit:4;stroke-dasharray:none;stroke-dashoffset:0;stroke-opacity:1" />
      <text
         id="text6544"
         y="258.13705"
         x="348.68835"
         style="font-size:12px;font-style:normal;font-weight:normal;fill:#000000;fill-opacity:1;stroke:none;stroke-width:1px;stroke-linecap:butt;stroke-linejoin:miter;stroke-opacity:1;font-family:Bitstream Vera Sans"
         xml:space="preserve"><tspan
           style="text-align:center;text-anchor:middle"
           y="258.13705"
           x="348.68835"
           id="tspan6546"
           sodipodi:role="line">slice timing</tspan><tspan
           style="text-align:center;text-anchor:middle"
           id="tspan6548"
           y="273.13705"
           x="348.68835"
           sodipodi:role="line">run N</tspan><tspan
           id="tspan6550"
           y="288.13705"
           x="348.68835"
           sodipodi:role="line" /></text>
    </g>
    <g
       id="g6590"
       transform="translate(2.9426078,0)">
      <rect
         y="299.974"
         x="196.6925"
         height="34.345184"
         width="69.440552"
         id="rect6566"
         style="fill:#ffffff;fill-opacity:1;fill-rule:nonzero;stroke:#000000;stroke-width:1;stroke-linecap:round;stroke-miterlimit:4;stroke-dasharray:none;stroke-dashoffset:0;stroke-opacity:1" />
      <text
         id="text6568"
         y="313.10599"
         x="231.59731"
         style="font-size:12px;font-style:normal;font-weight:normal;fill:#000000;fill-opacity:1;stroke:none;stroke-width:1px;stroke-linecap:butt;stroke-linejoin:miter;stroke-opacity:1;font-family:Bitstream Vera Sans"
         xml:space="preserve"><tspan
           style="text-align:center;text-anchor:middle"
           y="313.10599"
           x="231.59731"
           id="tspan6570"
           sodipodi:role="line">time filter</tspan><tspan
           style="text-align:center;text-anchor:middle"
           id="tspan6572"
           y="328.10599"
           x="231.59731"
           sodipodi:role="line">run 1</tspan><tspan
           id="tspan6574"
           y="343.10599"
           x="231.59731"
           sodipodi:role="line" /></text>
    </g>
    <g
       id="g6597"
       transform="translate(3.4172058,0)">
      <rect
         y="299.974"
         x="312.35495"
         height="34.345184"
         width="69.440552"
         id="rect6576"
         style="fill:#ffffff;fill-opacity:1;fill-rule:nonzero;stroke:#000000;stroke-width:1;stroke-linecap:round;stroke-miterlimit:4;stroke-dasharray:none;stroke-dashoffset:0;stroke-opacity:1" />
      <text
         id="text6578"
         y="313.10599"
         x="347.25977"
         style="font-size:12px;font-style:normal;font-weight:normal;fill:#000000;fill-opacity:1;stroke:none;stroke-width:1px;stroke-linecap:butt;stroke-linejoin:miter;stroke-opacity:1;font-family:Bitstream Vera Sans"
         xml:space="preserve"><tspan
           style="text-align:center;text-anchor:middle"
           y="313.10599"
           x="347.25977"
           id="tspan6580"
           sodipodi:role="line">time filter</tspan><tspan
           style="text-align:center;text-anchor:middle"
           id="tspan6582"
           y="328.10599"
           x="347.25977"
           sodipodi:role="line">run N</tspan><tspan
           id="tspan6584"
           y="343.10599"
           x="347.25977"
           sodipodi:role="line" /></text>
    </g>
    <path
       style="fill:none;fill-rule:evenodd;stroke:#000000;stroke-width:1px;stroke-linecap:butt;stroke-linejoin:miter;marker-end:url(#Arrow2Lend);stroke-opacity:1"
       d="M 234.33777,150.48255 L 234.33777,174.28543"
       id="path6586" />
    <path
       style="fill:none;fill-rule:evenodd;stroke:#000000;stroke-width:1px;stroke-linecap:butt;stroke-linejoin:miter;marker-end:url(#Arrow2Lend);stroke-opacity:1"
       d="M 350.47482,151.4647 L 350.47482,174.15677"
       id="path6588" />
    <path
       style="fill:none;fill-rule:evenodd;stroke:#000000;stroke-width:1px;stroke-linecap:butt;stroke-linejoin:miter;marker-end:url(#Arrow2Lend);stroke-opacity:1"
       d="M 234.81236,334.11458 L 234.81236,354.14484"
       id="path6604" />
    <path
       style="fill:none;fill-rule:evenodd;stroke:#000000;stroke-width:1px;stroke-linecap:butt;stroke-linejoin:miter;marker-end:url(#Arrow2Lend);stroke-opacity:1"
       d="M 350.47482,333.66816 L 350.47482,353.95825"
       id="path6606" />
    <g
       id="g6672"
       transform="translate(1.4788666,0)">
      <rect
         y="467.83109"
         x="198.12106"
         height="34.345184"
         width="69.440552"
         id="rect6648"
         style="fill:#ffffff;fill-opacity:1;fill-rule:nonzero;stroke:#000000;stroke-width:1;stroke-linecap:round;stroke-miterlimit:4;stroke-dasharray:none;stroke-dashoffset:0;stroke-opacity:1" />
      <text
         id="text6650"
         y="480.96307"
         x="233.02588"
         style="font-size:12px;font-style:normal;font-weight:normal;fill:#000000;fill-opacity:1;stroke:none;stroke-width:1px;stroke-linecap:butt;stroke-linejoin:miter;stroke-opacity:1;font-family:Bitstream Vera Sans"
         xml:space="preserve"><tspan
           style="text-align:center;text-anchor:middle"
           y="480.96307"
           x="233.02588"
           id="tspan6652"
           sodipodi:role="line">smoothing</tspan><tspan
           style="text-align:center;text-anchor:middle"
           id="tspan6654"
           y="495.96307"
           x="233.02588"
           sodipodi:role="line">run 1</tspan><tspan
           id="tspan6656"
           y="510.96307"
           x="233.02588"
           sodipodi:role="line" /></text>
    </g>
    <g
       id="g6679"
       transform="translate(1.4788513,0)">
      <rect
         y="467.83109"
         x="313.78354"
         height="34.345184"
         width="69.440552"
         id="rect6658"
         style="fill:#ffffff;fill-opacity:1;fill-rule:nonzero;stroke:#000000;stroke-width:1;stroke-linecap:round;stroke-miterlimit:4;stroke-dasharray:none;stroke-dashoffset:0;stroke-opacity:1" />
      <text
         id="text6660"
         y="480.96307"
         x="348.68835"
         style="font-size:12px;font-style:normal;font-weight:normal;fill:#000000;fill-opacity:1;stroke:none;stroke-width:1px;stroke-linecap:butt;stroke-linejoin:miter;stroke-opacity:1;font-family:Bitstream Vera Sans"
         xml:space="preserve"><tspan
           style="text-align:center;text-anchor:middle"
           y="480.96307"
           x="348.68835"
           id="tspan6662"
           sodipodi:role="line">smoothing</tspan><tspan
           style="text-align:center;text-anchor:middle"
           id="tspan6664"
           y="495.96307"
           x="348.68835"
           sodipodi:role="line">run N</tspan><tspan
           id="tspan6666"
           y="510.96307"
           x="348.68835"
           sodipodi:role="line" /></text>
    </g>
    <path
       style="fill:none;fill-rule:evenodd;stroke:#000000;stroke-width:1px;stroke-linecap:butt;stroke-linejoin:miter;marker-end:url(#Arrow2Lend);stroke-opacity:1"
       d="M 234.30259,446.91109 L 234.30259,466.94135"
       id="path6668" />
    <path
       style="fill:none;fill-rule:evenodd;stroke:#000000;stroke-width:1px;stroke-linecap:butt;stroke-linejoin:miter;marker-end:url(#Arrow2Lend);stroke-opacity:1"
       d="M 349.96505,446.46467 L 349.96505,466.75476"
       id="path6670" />
    <path
       style="fill:none;fill-rule:evenodd;stroke:#000000;stroke-width:1px;stroke-linecap:butt;stroke-linejoin:miter;marker-end:url(#Arrow2Lend);stroke-opacity:1"
       d="M 135.20595,271.53055 L 135.20595,426.27107 L 199.24401,426.27107"
       id="path6686" />
    <path
       style="fill:none;fill-rule:evenodd;stroke:#000000;stroke-width:1px;stroke-linecap:butt;stroke-linejoin:miter;marker-end:url(#Arrow2Lend);stroke-opacity:1"
       d="M 46.214479,264.2671 C 48.234784,264.2671 111.36932,264.2671 111.36932,264.2671"
       id="path2512"
       transform="translate(89.244007,109.36217)" />
    <path
       style="fill:none;fill-rule:evenodd;stroke:#000000;stroke-width:1px;stroke-linecap:butt;stroke-linejoin:miter;marker-end:url(#Arrow2Lend);stroke-opacity:1"
       d="M 256.69973,252.69387 C 254.43332,252.69387 183.60825,252.69387 183.60825,252.69387"
       id="path2531" />
  </g>
</svg>
