<?xml version="1.0" encoding="UTF-8" standalone="no"?>
<!-- Created with Inkscape (http://www.inkscape.org/) -->
<svg
   xmlns:dc="http://purl.org/dc/elements/1.1/"
   xmlns:cc="http://creativecommons.org/ns#"
   xmlns:rdf="http://www.w3.org/1999/02/22-rdf-syntax-ns#"
   xmlns:svg="http://www.w3.org/2000/svg"
   xmlns="http://www.w3.org/2000/svg"
   xmlns:sodipodi="http://sodipodi.sourceforge.net/DTD/sodipodi-0.dtd"
   xmlns:inkscape="http://www.inkscape.org/namespaces/inkscape"
   id="svg2443"
   sodipodi:version="0.32"
   inkscape:version="0.46"
   width="209.94843"
   height="146.59872"
   xml:space="preserve"
   sodipodi:docname="fig_flowchart_civet.svg"
   version="1.0"
   inkscape:output_extension="org.inkscape.output.svg.inkscape"><metadata
     id="metadata2448"><rdf:RDF><cc:Work
         rdf:about=""><dc:format>image/svg+xml</dc:format><dc:type
           rdf:resource="http://purl.org/dc/dcmitype/StillImage" /></cc:Work></rdf:RDF></metadata><defs
     id="defs2446"><inkscape:perspective
       sodipodi:type="inkscape:persp3d"
       inkscape:vp_x="0 : 526.18109 : 1"
       inkscape:vp_y="0 : 1000 : 0"
       inkscape:vp_z="744.09448 : 526.18109 : 1"
       inkscape:persp3d-origin="372.04724 : 350.78739 : 1"
       id="perspective2450" /><clipPath
       clipPathUnits="userSpaceOnUse"
       id="clipPath2596"><path
         d="M 0,0 L 362.835,0 L 362.835,35.433 L 0,35.433 L 0,0 z"
         id="path2598" /></clipPath><linearGradient
       x1="0"
       y1="0"
       x2="0"
       y2="35.432968"
       gradientUnits="userSpaceOnUse"
       id="linearGradient2600"><stop
         style="stop-opacity:1;stop-color:#ffffff"
         offset="0"
         id="stop2602" /><stop
         style="stop-opacity:1;stop-color:#ccccec"
         offset="35.43297"
         id="stop2604" /></linearGradient><clipPath
       clipPathUnits="userSpaceOnUse"
       id="clipPath2652"><path
         d="M 0,0 L 371,0 L 371,274 L 0,274 L 0,0 z"
         id="path2654" /></clipPath><clipPath
       clipPathUnits="userSpaceOnUse"
       id="clipPath2696"><path
         d="M 0,2740 L 0,0 L 3710,0 L 3710,2740 L 0,2740 z M 536.498,2050.06 L 536.498,1982.66 L 555.395,1982.66 L 555.395,2050.06 L 555.395,2050.06 L 545.947,2012.26 L 536.498,2050.06 z"
         clip-rule="evenodd"
         id="path2698" /></clipPath><clipPath
       clipPathUnits="userSpaceOnUse"
       id="clipPath2712"><path
         d="M 0,2740 L 0,0 L 3710,0 L 3710,2740 L 0,2740 z M 536.498,1709.91 L 536.498,1642.51 L 555.395,1642.51 L 555.395,1709.91 L 555.395,1709.91 L 545.947,1672.12 L 536.498,1709.91 z"
         clip-rule="evenodd"
         id="path2714" /></clipPath><clipPath
       clipPathUnits="userSpaceOnUse"
       id="clipPath2750"><path
         d="M 0,2740 L 0,0 L 3710,0 L 3710,2740 L 0,2740 z M 1897.08,1709.91 L 1897.08,1642.51 L 1915.98,1642.51 L 1915.98,1709.91 L 1915.98,1709.91 L 1906.53,1672.12 L 1897.08,1709.91 z"
         clip-rule="evenodd"
         id="path2752" /></clipPath><clipPath
       clipPathUnits="userSpaceOnUse"
       id="clipPath2766"><path
         d="M 0,2740 L 0,0 L 3710,0 L 3710,2740 L 0,2740 z M 1897.08,2050.06 L 1897.08,1982.66 L 1915.98,1982.66 L 1915.98,2050.06 L 1915.98,2050.06 L 1906.53,2012.26 L 1897.08,2050.06 z"
         clip-rule="evenodd"
         id="path2768" /></clipPath><clipPath
       clipPathUnits="userSpaceOnUse"
       id="clipPath2820"><path
         d="M 0,2740 L 0,0 L 3710,0 L 3710,2740 L 0,2740 z M 508.152,2446.89 L 508.152,2379.5 L 527.049,2379.5 L 527.049,2446.89 L 527.049,2446.89 L 517.601,2409.1 L 508.152,2446.89 z"
         clip-rule="evenodd"
         id="path2822" /></clipPath><clipPath
       clipPathUnits="userSpaceOnUse"
       id="clipPath2836"><path
         d="M 0,2740 L 0,0 L 3710,0 L 3710,2740 L 0,2740 z M 1897.08,2446.89 L 1897.08,2379.5 L 1915.98,2379.5 L 1915.98,2446.89 L 1915.98,2446.89 L 1906.53,2409.1 L 1897.08,2446.89 z"
         clip-rule="evenodd"
         id="path2838" /></clipPath><clipPath
       clipPathUnits="userSpaceOnUse"
       id="clipPath2852"><path
         d="M 0,2740 L 0,0 L 3710,0 L 3710,2740 L 0,2740 z M 1897.08,1313.07 L 1897.08,1245.68 L 1915.98,1245.68 L 1915.98,1313.07 L 1915.98,1313.07 L 1906.53,1275.28 L 1897.08,1313.07 z"
         clip-rule="evenodd"
         id="path2854" /></clipPath><clipPath
       clipPathUnits="userSpaceOnUse"
       id="clipPath2868"><path
         d="M 0,2740 L 0,0 L 3710,0 L 3710,2740 L 0,2740 z M 1897.08,972.929 L 1897.08,905.53 L 1915.98,905.53 L 1915.98,972.929 L 1915.98,972.929 L 1906.53,935.135 L 1897.08,972.929 z"
         clip-rule="evenodd"
         id="path2870" /></clipPath><clipPath
       clipPathUnits="userSpaceOnUse"
       id="clipPath2884"><path
         d="M 0,2740 L 0,0 L 3710,0 L 3710,2740 L 0,2740 z M 1897.08,632.783 L 1897.08,565.384 L 1915.98,565.384 L 1915.98,632.783 L 1915.98,632.783 L 1906.53,594.989 L 1897.08,632.783 z"
         clip-rule="evenodd"
         id="path2886" /></clipPath><clipPath
       clipPathUnits="userSpaceOnUse"
       id="clipPath2900"><path
         d="M 0,2740 L 0,0 L 3710,0 L 3710,2740 L 0,2740 z M 649.88,972.929 L 649.88,905.53 L 668.777,905.53 L 668.777,972.929 L 668.777,972.929 L 659.328,935.135 L 649.88,972.929 z"
         clip-rule="evenodd"
         id="path2902" /></clipPath><clipPath
       clipPathUnits="userSpaceOnUse"
       id="clipPath2916"><path
         d="M 0,2740 L 0,0 L 3710,0 L 3710,2740 L 0,2740 z M 3144.28,972.929 L 3144.28,905.53 L 3163.18,905.53 L 3163.18,972.929 L 3163.18,972.929 L 3153.73,935.135 L 3144.28,972.929 z"
         clip-rule="evenodd"
         id="path2918" /></clipPath><clipPath
       clipPathUnits="userSpaceOnUse"
       id="clipPath2936"><path
         d="M 0,2740 L 0,0 L 3710,0 L 3710,2740 L 0,2740 z M 1310.02,2606.26 L 1377.41,2606.26 L 1377.41,2625.16 L 1310.02,2625.16 L 1310.02,2625.16 L 1347.81,2615.71 L 1310.02,2606.26 z"
         clip-rule="evenodd"
         id="path2938" /></clipPath><clipPath
       clipPathUnits="userSpaceOnUse"
       id="clipPath2952"><path
         d="M 0,2740 L 0,0 L 3710,0 L 3710,2740 L 0,2740 z M 1897.08,292.637 L 1897.08,225.238 L 1915.98,225.238 L 1915.98,292.637 L 1915.98,292.637 L 1906.53,254.843 L 1897.08,292.637 z"
         clip-rule="evenodd"
         id="path2954" /></clipPath></defs><sodipodi:namedview
     inkscape:window-height="844"
     inkscape:window-width="1439"
     inkscape:pageshadow="2"
     inkscape:pageopacity="0.0"
     guidetolerance="10.0"
     gridtolerance="10.0"
     objecttolerance="10.0"
     borderopacity="1.0"
     bordercolor="#666666"
     pagecolor="#ffffff"
     id="base"
     showgrid="false"
     inkscape:zoom="2.3547893"
     inkscape:cx="179.10256"
     inkscape:cy="67.205879"
     inkscape:window-x="0"
     inkscape:window-y="25"
     inkscape:current-layer="g2452" /><g
     id="g2452"
     inkscape:groupmode="layer"
     inkscape:label="civet101"
     transform="matrix(1.25,0,0,-1.25,-87.952801,-21.735465)"><path
       d="M 168.63649,-118.9113 L 168.63649,-118.9113 C 166.12443,-118.9113 164.08824,-120.94749 164.08824,-123.45955 L 164.08824,-129.95666 C 164.08824,-132.46872 166.12443,-134.50491 168.63649,-134.50491 L 233.61099,-134.50491 C 236.12236,-134.50491 238.15855,-132.46872 238.15855,-129.95666 L 238.15855,-123.45955 C 238.15855,-120.94749 236.12236,-118.9113 233.61099,-118.9113 L 168.63649,-118.9113 z"
       style="fill:none;stroke:#000000;stroke-width:0.32487249;stroke-linecap:butt;stroke-linejoin:miter;stroke-miterlimit:10;stroke-dasharray:none;stroke-opacity:1"
       id="path2660" /><text
       id="text2664"
       transform="scale(1,-1)"
       x="177.7323"
       y="128.65697"
       style="font-size:8.25203991px"><tspan
         id="tspan2666"
         sodipodi:role="line"
         y="128.65697"
         x="177.7323 181.85818 183.69008 188.27806 192.40393 196.52982 198.36171 200.6557 202.48759 206.61348 211.20146 213.49545 215.32735 219.91533"
         style="font-size:8.25176525px;font-variant:normal;font-weight:normal;writing-mode:lr-tb;fill:#000000;fill-opacity:1;fill-rule:nonzero;stroke:none;font-family:Helvetica;-inkscape-font-specification:Helvetica">classification</tspan></text>
<path
       id="path2700"
       style="fill:none;stroke:#000000;stroke-width:0.32487249;stroke-linecap:butt;stroke-linejoin:miter;stroke-miterlimit:10;stroke-dasharray:none;stroke-opacity:1"
       d="M 107.56019,-60.433909 L 107.56019,-68.230712" /><path
       d="M 106.91041,-64.245664 L 107.56019,-66.845057 L 108.2099,-64.245664 L 106.91041,-64.245664"
       style="fill:#000000;fill-opacity:1;fill-rule:evenodd;stroke:none"
       id="path2704" /><path
       d="M 106.91041,-64.245664 L 107.56019,-66.845057 L 108.2099,-64.245664 L 106.91041,-64.245664 z"
       style="fill:none;stroke:#000000;stroke-width:0.32487249;stroke-linecap:butt;stroke-linejoin:miter;stroke-miterlimit:10;stroke-dasharray:none;stroke-opacity:1"
       id="path2706" /><path
       id="path2716"
       style="fill:none;stroke:#000000;stroke-width:0.32487249;stroke-linecap:butt;stroke-linejoin:miter;stroke-miterlimit:10;stroke-dasharray:none;stroke-opacity:1"
       d="M 107.56019,-83.825004 L 107.56019,-91.621807" /><path
       d="M 106.91041,-87.636759 L 107.56019,-90.235464 L 108.2099,-87.636759 L 106.91041,-87.636759"
       style="fill:#000000;fill-opacity:1;fill-rule:evenodd;stroke:none"
       id="path2720" /><path
       d="M 106.91041,-87.636759 L 107.56019,-90.235464 L 108.2099,-87.636759 L 106.91041,-87.636759 z"
       style="fill:none;stroke:#000000;stroke-width:0.32487249;stroke-linecap:butt;stroke-linejoin:miter;stroke-miterlimit:10;stroke-dasharray:none;stroke-opacity:1"
       id="path2722" /><path
       d="M 78.971339,-40.941903 L 78.971339,-40.941903 C 76.459459,-40.941903 74.423158,-42.978094 74.423158,-45.490152 L 74.423158,-55.88566 C 74.423158,-58.397718 76.459473,-60.433909 78.971339,-60.433909 L 136.1489,-60.433909 C 138.66082,-60.433909 140.69715,-58.397718 140.69715,-55.88566 L 140.69715,-45.490152 C 140.69715,-42.978094 138.66082,-40.941903 136.1489,-40.941903 L 78.971339,-40.941903 z"
       style="fill:none;stroke:#000000;stroke-width:0.32487249;stroke-linecap:butt;stroke-linejoin:miter;stroke-miterlimit:10;stroke-dasharray:none;stroke-opacity:1"
       id="path2724" /><path
       d="M 78.971339,-68.230712 L 78.971339,-68.230712 C 76.459473,-68.230712 74.423158,-70.266903 74.423158,-72.778961 L 74.423158,-79.276755 C 74.423158,-81.788813 76.459473,-83.825004 78.971339,-83.825004 L 136.1489,-83.825004 C 138.66082,-83.825004 140.69715,-81.788813 140.69715,-79.276755 L 140.69715,-72.778961 C 140.69715,-70.266903 138.66082,-68.230712 136.1489,-68.230712 L 78.971339,-68.230712 z"
       style="fill:none;stroke:#000000;stroke-width:0.32487249;stroke-linecap:butt;stroke-linejoin:miter;stroke-miterlimit:10;stroke-dasharray:none;stroke-opacity:1"
       id="path2726" /><path
       d="M 78.971339,-91.621807 L 78.971339,-91.621807 C 76.459473,-91.621807 74.423158,-93.657998 74.423158,-96.170056 L 74.423158,-106.56556 C 74.423158,-109.07762 76.459473,-111.11381 78.971339,-111.11381 L 136.1489,-111.11381 C 138.66082,-111.11381 140.69715,-109.07762 140.69715,-106.56556 L 140.69715,-96.170056 C 140.69715,-93.657998 138.66082,-91.621807 136.1489,-91.621807 L 78.971339,-91.621807 z"
       style="fill:none;stroke:#000000;stroke-width:0.32487249;stroke-linecap:butt;stroke-linejoin:miter;stroke-miterlimit:10;stroke-dasharray:none;stroke-opacity:1"
       id="path2728" /><path
       d="M 75.072903,-37.042814 L 75.072882,-37.042814 C 72.560996,-37.042814 70.524677,-39.079693 70.524677,-41.591064 L 70.524677,-110.46465 C 70.524677,-112.97602 72.560996,-115.0129 75.072903,-115.0129 L 140.0473,-115.0129 C 142.55936,-115.0129 144.59555,-112.97602 144.59555,-110.46465 L 144.59555,-41.591064 C 144.59555,-39.079693 142.55936,-37.042814 140.0473,-37.042814 L 75.072903,-37.042814 z"
       style="fill:none;stroke:#000000;stroke-width:0.32487249;stroke-linecap:butt;stroke-linejoin:miter;stroke-miterlimit:10;stroke-dasharray:none;stroke-opacity:1"
       id="path2730" /><text
       id="text2734"
       transform="scale(1,-1)"
       x="80.270828"
       y="48.738705"
       style="font-size:8.25203991px"><tspan
         id="tspan2736"
         sodipodi:role="line"
         y="48.738705"
         x="80.270828 84.85881 89.446793 94.034775 98.853806 103.44179 108.02976 109.86166 112.15565 116.74363 119.49147 126.36519 128.19708 130.49107"
         style="font-size:8.25176525px;font-variant:normal;font-weight:normal;writing-mode:lr-tb;fill:#000000;fill-opacity:1;fill-rule:nonzero;stroke:none;font-family:Helvetica;-inkscape-font-specification:Helvetica">non−uniformity</tspan><tspan
         id="tspan2738"
         sodipodi:role="line"
         y="56.535645"
         x="88.067772 92.193649 96.781631 99.529472 102.27731 106.86529 110.99117 113.28516 115.11706 119.70503 124.29301"
         style="font-size:8.25176525px;font-variant:normal;font-weight:normal;writing-mode:lr-tb;fill:#000000;fill-opacity:1;fill-rule:nonzero;stroke:none;font-family:Helvetica;-inkscape-font-specification:Helvetica">corrections</tspan><tspan
         id="tspan2740"
         sodipodi:role="line"
         y="77.977196"
         x="82.220055 86.808037 89.555878 94.14386 95.975746 100.56373 102.85772 109.73144 114.31942 118.4453 122.57119 124.40308 128.99106"
         style="font-size:8.25176525px;font-variant:normal;font-weight:normal;writing-mode:lr-tb;fill:#000000;fill-opacity:1;fill-rule:nonzero;stroke:none;font-family:Helvetica;-inkscape-font-specification:Helvetica">brain masking</tspan><tspan
         id="tspan2742"
         sodipodi:role="line"
         y="99.418816"
         x="97.813934 99.645828 101.47772 106.0657 110.65368 115.24166"
         style="font-size:8.25176525px;font-variant:normal;font-weight:normal;writing-mode:lr-tb;fill:#000000;fill-opacity:1;fill-rule:nonzero;stroke:none;font-family:Helvetica;-inkscape-font-specification:Helvetica">linear</tspan><tspan
         id="tspan2744"
         sodipodi:role="line"
         y="107.21575"
         x="86.11853 88.866364 93.454346 98.042328 99.874222 104.0001 106.29409 109.04193 113.62991 115.9239 117.75579 122.34377"
         style="font-size:8.25176525px;font-variant:normal;font-weight:normal;writing-mode:lr-tb;fill:#000000;fill-opacity:1;fill-rule:nonzero;stroke:none;font-family:Helvetica;-inkscape-font-specification:Helvetica">registration</tspan></text>
<path
       id="path2754"
       style="fill:none;stroke:#000000;stroke-width:0.32487249;stroke-linecap:butt;stroke-linejoin:miter;stroke-miterlimit:10;stroke-dasharray:none;stroke-opacity:1"
       d="M 201.1234,-83.825004 L 201.1234,-91.621807" /><path
       d="M 200.47355,-87.636759 L 201.1234,-90.235464 L 201.77325,-87.636759 L 200.47355,-87.636759"
       style="fill:#000000;fill-opacity:1;fill-rule:evenodd;stroke:none"
       id="path2758" /><path
       d="M 200.47355,-87.636759 L 201.1234,-90.235464 L 201.77325,-87.636759 L 200.47355,-87.636759 z"
       style="fill:none;stroke:#000000;stroke-width:0.32487249;stroke-linecap:butt;stroke-linejoin:miter;stroke-miterlimit:10;stroke-dasharray:none;stroke-opacity:1"
       id="path2760" /><path
       id="path2770"
       style="fill:none;stroke:#000000;stroke-width:0.32487249;stroke-linecap:butt;stroke-linejoin:miter;stroke-miterlimit:10;stroke-dasharray:none;stroke-opacity:1"
       d="M 201.1234,-60.433909 L 201.1234,-68.230712" /><path
       d="M 200.47355,-64.245664 L 201.1234,-66.845057 L 201.77325,-64.245664 L 200.47355,-64.245664"
       style="fill:#000000;fill-opacity:1;fill-rule:evenodd;stroke:none"
       id="path2774" /><path
       d="M 200.47355,-64.245664 L 201.1234,-66.845057 L 201.77325,-64.245664 L 200.47355,-64.245664 z"
       style="fill:none;stroke:#000000;stroke-width:0.32487249;stroke-linecap:butt;stroke-linejoin:miter;stroke-miterlimit:10;stroke-dasharray:none;stroke-opacity:1"
       id="path2776" /><path
       d="M 172.53489,-40.941903 L 172.53489,-40.941903 C 170.02284,-40.941903 167.98664,-42.978094 167.98664,-45.490152 L 167.98664,-55.88566 C 167.98664,-58.397718 170.02284,-60.433909 172.53489,-60.433909 L 229.7119,-60.433909 C 232.22396,-60.433909 234.26015,-58.397718 234.26015,-55.88566 L 234.26015,-45.490152 C 234.26015,-42.978094 232.22396,-40.941903 229.7119,-40.941903 L 172.53489,-40.941903 z"
       style="fill:none;stroke:#000000;stroke-width:0.32487249;stroke-linecap:butt;stroke-linejoin:miter;stroke-miterlimit:10;stroke-dasharray:none;stroke-opacity:1"
       id="path2778" /><path
       d="M 172.53489,-68.230712 L 172.53489,-68.230712 C 170.02284,-68.230712 167.98664,-70.266903 167.98664,-72.778961 L 167.98664,-79.276755 C 167.98664,-81.788813 170.02284,-83.825004 172.53489,-83.825004 L 229.7119,-83.825004 C 232.22396,-83.825004 234.26015,-81.788813 234.26015,-79.276755 L 234.26015,-72.778961 C 234.26015,-70.266903 232.22396,-68.230712 229.7119,-68.230712 L 172.53489,-68.230712 z"
       style="fill:none;stroke:#000000;stroke-width:0.32487249;stroke-linecap:butt;stroke-linejoin:miter;stroke-miterlimit:10;stroke-dasharray:none;stroke-opacity:1"
       id="path2780" /><path
       d="M 172.53489,-91.621807 L 172.53489,-91.621807 C 170.02284,-91.621807 167.98664,-93.657998 167.98664,-96.170056 L 167.98664,-106.56556 C 167.98664,-109.07762 170.02284,-111.11381 172.53489,-111.11381 L 229.7119,-111.11381 C 232.22396,-111.11381 234.26015,-109.07762 234.26015,-106.56556 L 234.26015,-96.170056 C 234.26015,-93.657998 232.22396,-91.621807 229.7119,-91.621807 L 172.53489,-91.621807 z"
       style="fill:none;stroke:#000000;stroke-width:0.32487249;stroke-linecap:butt;stroke-linejoin:miter;stroke-miterlimit:10;stroke-dasharray:none;stroke-opacity:1"
       id="path2782" /><path
       d="M 168.63649,-37.042814 L 168.63649,-37.042814 C 166.12443,-37.042814 164.08824,-39.079693 164.08824,-41.591064 L 164.08824,-110.46465 C 164.08824,-112.97602 166.12443,-115.0129 168.63649,-115.0129 L 233.61099,-115.0129 C 236.12236,-115.0129 238.15855,-112.97602 238.15855,-110.46465 L 238.15855,-41.591064 C 238.15855,-39.079693 236.12236,-37.042814 233.61099,-37.042814 L 168.63649,-37.042814 z"
       style="fill:none;stroke:#000000;stroke-width:0.32487249;stroke-linecap:butt;stroke-linejoin:miter;stroke-miterlimit:10;stroke-dasharray:none;stroke-opacity:1"
       id="path2784" /><text
       id="text2788"
       transform="scale(1,-1)"
       x="173.83389"
       y="48.738705"
       style="font-size:8.25203991px"><tspan
         id="tspan2790"
         sodipodi:role="line"
         y="48.738705"
         x="173.83389 178.42188 183.00986 187.59784 192.41687 197.00485 201.59283 203.42473 205.71872 210.3067 213.05453 219.92825 221.76015 224.05414"
         style="font-size:8.25176525px;font-variant:normal;font-weight:normal;writing-mode:lr-tb;fill:#000000;fill-opacity:1;fill-rule:nonzero;stroke:none;font-family:Helvetica;-inkscape-font-specification:Helvetica">non−uniformity</tspan><tspan
         id="tspan2792"
         sodipodi:role="line"
         y="56.535645"
         x="181.63084 185.75673 190.3447 193.09254 195.84038 200.42836 204.55424 206.84824 208.68013 213.26811 217.85608"
         style="font-size:8.25176525px;font-variant:normal;font-weight:normal;writing-mode:lr-tb;fill:#000000;fill-opacity:1;fill-rule:nonzero;stroke:none;font-family:Helvetica;-inkscape-font-specification:Helvetica">corrections</tspan><tspan
         id="tspan2794"
         sodipodi:role="line"
         y="77.977196"
         x="175.78314 180.37112 183.11896 187.70694 189.53883 194.12682 196.42081 203.29453 207.88251 212.00839 216.13428 217.96616 222.55414"
         style="font-size:8.25176525px;font-variant:normal;font-weight:normal;writing-mode:lr-tb;fill:#000000;fill-opacity:1;fill-rule:nonzero;stroke:none;font-family:Helvetica;-inkscape-font-specification:Helvetica">brain masking</tspan><tspan
         id="tspan2796"
         sodipodi:role="line"
         y="99.418816"
         x="181.63084 186.21883 190.80681 195.39479 200.21381 202.0457 203.87759 208.46558 213.05356 217.64154"
         style="font-size:8.25176525px;font-variant:normal;font-weight:normal;writing-mode:lr-tb;fill:#000000;fill-opacity:1;fill-rule:nonzero;stroke:none;font-family:Helvetica;-inkscape-font-specification:Helvetica">non−linear</tspan><tspan
         id="tspan2798"
         sodipodi:role="line"
         y="107.21575"
         x="179.68161 182.42944 187.01743 191.60541 193.4373 197.56319 199.85716 202.60501 207.19299 209.48698 211.31888 215.90685"
         style="font-size:8.25176525px;font-variant:normal;font-weight:normal;writing-mode:lr-tb;fill:#000000;fill-opacity:1;fill-rule:nonzero;stroke:none;font-family:Helvetica;-inkscape-font-specification:Helvetica">registration</tspan></text>
<path
       id="path2824"
       style="fill:none;stroke:#000000;stroke-width:0.32487249;stroke-linecap:butt;stroke-linejoin:miter;stroke-miterlimit:10;stroke-dasharray:none;stroke-opacity:1"
       d="M 105.61092,-33.144413 L 105.61092,-40.941903" /><path
       d="M 104.96114,-36.956855 L 105.61092,-39.55556 L 106.26063,-36.956855 L 104.96114,-36.956855"
       style="fill:#000000;fill-opacity:1;fill-rule:evenodd;stroke:none"
       id="path2828" /><path
       d="M 104.96114,-36.956855 L 105.61092,-39.55556 L 106.26063,-36.956855 L 104.96114,-36.956855 z"
       style="fill:none;stroke:#000000;stroke-width:0.32487249;stroke-linecap:butt;stroke-linejoin:miter;stroke-miterlimit:10;stroke-dasharray:none;stroke-opacity:1"
       id="path2830" /><path
       id="path2840"
       style="fill:none;stroke:#000000;stroke-width:0.32487249;stroke-linecap:butt;stroke-linejoin:miter;stroke-miterlimit:10;stroke-dasharray:none;stroke-opacity:1"
       d="M 201.1234,-33.144413 L 201.1234,-40.941903" /><path
       d="M 200.47355,-36.956855 L 201.1234,-39.55556 L 201.77325,-36.956855 L 200.47355,-36.956855"
       style="fill:#000000;fill-opacity:1;fill-rule:evenodd;stroke:none"
       id="path2844" /><path
       d="M 200.47355,-36.956855 L 201.1234,-39.55556 L 201.77325,-36.956855 L 200.47355,-36.956855 z"
       style="fill:none;stroke:#000000;stroke-width:0.32487249;stroke-linecap:butt;stroke-linejoin:miter;stroke-miterlimit:10;stroke-dasharray:none;stroke-opacity:1"
       id="path2846" /><path
       id="path2856"
       style="fill:none;stroke:#000000;stroke-width:0.32487249;stroke-linecap:butt;stroke-linejoin:miter;stroke-miterlimit:10;stroke-dasharray:none;stroke-opacity:1"
       d="M 201.1234,-111.11381 L 201.1234,-118.9113" /><path
       d="M 200.47355,-114.92626 L 201.1234,-117.52496 L 201.77325,-114.92626 L 200.47355,-114.92626"
       style="fill:#000000;fill-opacity:1;fill-rule:evenodd;stroke:none"
       id="path2860" /><path
       d="M 200.47355,-114.92626 L 201.1234,-117.52496 L 201.77325,-114.92626 L 200.47355,-114.92626 z"
       style="fill:none;stroke:#000000;stroke-width:0.32487249;stroke-linecap:butt;stroke-linejoin:miter;stroke-miterlimit:10;stroke-dasharray:none;stroke-opacity:1"
       id="path2862" /><path
       d="M 75.072903,-17.550808 L 75.072882,-17.550808 C 72.560996,-17.550808 70.524677,-19.586999 70.524677,-22.099057 L 70.524677,-28.596164 C 70.524677,-31.108222 72.560996,-33.144413 75.072882,-33.144413 L 140.0473,-33.144413 C 142.55936,-33.144413 144.59555,-31.108222 144.59555,-28.596164 L 144.59555,-22.099057 C 144.59555,-19.586999 142.55936,-17.550808 140.0473,-17.550808 L 75.072903,-17.550808 z"
       style="fill:none;stroke:#000000;stroke-width:0.32487249;stroke-linecap:butt;stroke-linejoin:miter;stroke-miterlimit:10;stroke-dasharray:none;stroke-opacity:1"
       id="path2928" /><path
       d="M 168.63649,-17.550808 L 168.63649,-17.550808 C 166.12443,-17.550808 164.08824,-19.586999 164.08824,-22.099057 L 164.08824,-28.596164 C 164.08824,-31.108222 166.12443,-33.144413 168.63649,-33.144413 L 233.61099,-33.144413 C 236.12236,-33.144413 238.15855,-31.108222 238.15855,-28.596164 L 238.15855,-22.099057 C 238.15855,-19.586999 236.12236,-17.550808 233.61099,-17.550808 L 168.63649,-17.550808 z"
       style="fill:none;stroke:#000000;stroke-width:0.32487249;stroke-linecap:butt;stroke-linejoin:miter;stroke-miterlimit:10;stroke-dasharray:none;stroke-opacity:1"
       id="path2930" /><path
       id="path2940"
       style="fill:none;stroke:#000000;stroke-width:0.32487249;stroke-linecap:butt;stroke-linejoin:miter;stroke-miterlimit:10;stroke-dasharray:none;stroke-opacity:1"
       d="M 144.59555,-76.027514 L 154.3419,-76.027514 L 154.3419,-25.34761 L 164.08824,-25.34761" /><path
       d="M 160.1032,-25.997459 L 162.7019,-25.34761 L 160.1032,-24.697762 L 160.1032,-25.997459"
       style="fill:#000000;fill-opacity:1;fill-rule:evenodd;stroke:none"
       id="path2944" /><path
       d="M 160.1032,-25.997459 L 162.7019,-25.34761 L 160.1032,-24.697762 L 160.1032,-25.997459 z"
       style="fill:none;stroke:#000000;stroke-width:0.32487249;stroke-linecap:butt;stroke-linejoin:miter;stroke-miterlimit:10;stroke-dasharray:none;stroke-opacity:1"
       id="path2946" /><text
       id="text2966"
       transform="scale(1,-1)"
       x="86.118568"
       y="27.297155"
       style="font-size:8.25203991px"><tspan
         id="tspan2968"
         sodipodi:role="line"
         y="27.297155"
         x="86.118568 90.706551 95.294533 97.588524 99.42041 103.5463 108.13428 110.42827 117.30199 123.25977 171.88477 176.01065 178.30464 182.89262 185.64046 190.22844 194.81644 197.11041 201.69839 205.82428 207.65617 211.78206 214.07605 220.94977 226.90755"
         style="font-size:8.25176525px;font-variant:normal;font-weight:normal;writing-mode:lr-tb;fill:#000000;fill-opacity:1;fill-rule:nonzero;stroke:none;font-family:Helvetica;-inkscape-font-specification:Helvetica">native MRIstereotaxic MRI</tspan></text>
</g></svg>